<?xml version="1.0" encoding="utf-8"?>
<!-- Generator: Adobe Illustrator 16.0.4, SVG Export Plug-In . SVG Version: 6.00 Build 0)  -->
<!DOCTYPE svg PUBLIC "-//W3C//DTD SVG 1.1//EN" "http://www.w3.org/Graphics/SVG/1.1/DTD/svg11.dtd">
<svg version="1.1" id="Layer_1" xmlns="http://www.w3.org/2000/svg" xmlns:xlink="http://www.w3.org/1999/xlink" x="0px" y="0px"
	 width="715.062px" height="715.24px" viewBox="0 0 715.062 715.24" enable-background="new 0 0 715.062 715.24"
	 xml:space="preserve">
<path fill-rule="evenodd" clip-rule="evenodd" fill="#FFFFFF" d="M713.668,324.957C698.771,148.703,549.987,1.805,358.284,0
	C153.673,1.777-3.184,166.295,0.049,364.076c3.241,198.352,168.437,359.66,374.644,351.164
	C557.84,707.695,732.563,548.516,713.668,324.957z M423.79,543.26c0.942,34.447-29.563,67.041-68.164,65.791
	c-35.826-1.164-64.212-30.836-64.255-67.482c-0.041-34.613,29.49-65.729,66.177-65.451
	C396.875,476.414,425.062,509.061,423.79,543.26z M518.695,326.977c-9.345,13.906-22.366,25.972-35.626,36.449
	c-13.993,11.051-30.244,19.252-45.569,28.596c-12.491,7.617-22.187,16.777-22.605,32.957c-0.202,7.77-6.959,13.34-15.545,13.574
	c-14.045,0.381-28.105,0.104-42.159,0.104c0,0.039,0,0.08,0,0.121c-12.652,0-25.306,0.154-37.955-0.041
	c-13.773-0.211-19.147-5.75-19.475-19.617c-0.836-35.365,13.472-63.205,42.657-82.862c17.188-11.577,35.307-21.761,52.914-32.719
	c5.469-3.404,10.884-6.981,15.892-11.015c19.226-15.484,18.615-41.064-1.178-57.232c-34.925-28.528-89.774-21.642-116.965,14.502
	c-5.053,6.716-10.676,13.043-16.425,19.187c-6.675,7.134-15.681,8.597-23.576,2.872c-17.012-12.335-33.806-25.012-50.146-38.22
	c-8.816-7.126-9.455-15.181-3.211-24.579c30.428-45.803,70.406-78.498,126.028-87.458c74.237-11.956,137.199,8.617,184.483,68.915
	C539.984,228.451,545.107,287.676,518.695,326.977z"/>
</svg>
