<?xml version="1.0" encoding="utf-8"?>
<!-- Generator: Adobe Illustrator 16.0.4, SVG Export Plug-In . SVG Version: 6.00 Build 0)  -->
<!DOCTYPE svg PUBLIC "-//W3C//DTD SVG 1.1//EN" "http://www.w3.org/Graphics/SVG/1.1/DTD/svg11.dtd">
<svg version="1.1" id="Layer_1" xmlns="http://www.w3.org/2000/svg" xmlns:xlink="http://www.w3.org/1999/xlink" x="0px" y="0px"
	 width="416px" height="76.5px" viewBox="0 0 416 76.5" enable-background="new 0 0 416 76.5" xml:space="preserve">
<g>
	<rect x="47" y="12.5" fill="none" stroke="#10120D" stroke-width="14" stroke-miterlimit="10" width="57" height="57"/>
	<rect x="138" y="12.5" fill="none" stroke="#10120D" stroke-width="14" stroke-miterlimit="10" width="57" height="57"/>
	<rect x="252" y="12.5" fill="none" stroke="#10120D" stroke-width="14" stroke-miterlimit="10" width="57" height="57"/>
	<rect x="352" y="12.5" fill="none" stroke="#10120D" stroke-width="14" stroke-miterlimit="10" width="57" height="57"/>
	<rect x="7" y="9.5" fill="none" stroke="#10120D" stroke-width="14" stroke-miterlimit="10" width="57" height="57"/>
	<rect x="89" y="7.5" fill="none" stroke="#10120D" stroke-width="14" stroke-miterlimit="10" width="57" height="57"/>
	<rect x="202" y="7.5" fill="none" stroke="#10120D" stroke-width="14" stroke-miterlimit="10" width="57" height="57"/>
	<rect x="304" y="7.5" fill="none" stroke="#10120D" stroke-width="14" stroke-miterlimit="10" width="57" height="57"/>
</g>
<g>
	<rect x="47" y="12.5" fill="#EDB46C" width="57" height="57"/>
	<rect x="138" y="12.5" fill="#EDB46C" width="57" height="57"/>
	<rect x="252" y="12.5" fill="#EDB46C" width="57" height="57"/>
	<rect x="352" y="12.5" fill="#EDB46C" width="57" height="57"/>
	<rect x="7" y="9.5" fill="#FF6100" width="57" height="57"/>
	<rect x="89" y="7.5" fill="#FF6100" width="57" height="57"/>
	<rect x="202" y="7.5" fill="#FF6100" width="57" height="57"/>
	<rect x="304" y="7.5" fill="#FF6100" width="57" height="57"/>
</g>
<g>
	<path fill="#10120D" d="M43.962,17.661c3.319,1.761,5.889,4.23,7.71,7.41c1.82,3.18,2.73,6.85,2.73,11.01
		c0,4.12-0.91,7.78-2.73,10.979c-1.821,3.201-4.401,5.681-7.74,7.44c-3.34,1.761-7.21,2.64-11.61,2.64h-15.78v-42.12h15.78
		C36.762,15.021,40.642,15.901,43.962,17.661z M40.722,45.081c2.16-2.12,3.24-5.12,3.24-9c0-3.879-1.08-6.9-3.24-9.06
		c-2.16-2.16-5.181-3.24-9.06-3.24h-4.86v24.48h4.86C35.542,48.262,38.562,47.201,40.722,45.081z"/>
	<path fill="#10120D" d="M80.799,20.026v42.121H70.54V20.026H80.799z"/>
	<path fill="#10120D" d="M99.745,24.891c1.8-3.26,4.31-5.799,7.53-7.62c3.219-1.819,6.87-2.73,10.95-2.73
		c4.999,0,9.279,1.32,12.84,3.96c3.56,2.64,5.94,6.24,7.14,10.8h-11.281c-0.84-1.76-2.03-3.1-3.569-4.02
		c-1.541-0.92-3.291-1.38-5.25-1.38c-3.16,0-5.721,1.101-7.681,3.3c-1.96,2.2-2.939,5.14-2.939,8.82c0,3.68,0.979,6.621,2.939,8.821
		c1.96,2.199,4.521,3.299,7.681,3.299c1.959,0,3.709-0.459,5.25-1.379c1.539-0.92,2.729-2.26,3.569-4.021h11.281
		c-1.2,4.56-3.58,8.15-7.14,10.771c-3.561,2.619-7.841,3.93-12.84,3.93c-4.08,0-7.731-0.91-10.95-2.73
		c-3.221-1.819-5.73-4.35-7.53-7.59s-2.7-6.939-2.7-11.1C97.044,31.861,97.945,28.152,99.745,24.891z"/>
	<path fill="#10120D" d="M163.626,28.246v8.52h13.739v7.919h-13.739v9.24h15.539v8.221h-25.8V20.026h25.8v8.22H163.626z"/>
	<path fill="#10120D" d="M239.294,28.341c-0.76-1.4-1.851-2.47-3.27-3.21c-1.421-0.74-3.09-1.11-5.01-1.11
		c-3.321,0-5.98,1.09-7.98,3.27c-2.001,2.181-3,5.091-3,8.73c0,3.88,1.05,6.911,3.15,9.09c2.1,2.18,4.989,3.27,8.67,3.27
		c2.52,0,4.649-0.639,6.39-1.92c1.74-1.279,3.01-3.119,3.811-5.52h-13.021v-7.56h22.32v9.54c-0.761,2.561-2.051,4.94-3.87,7.14
		c-1.82,2.201-4.131,3.98-6.93,5.34c-2.801,1.361-5.961,2.041-9.48,2.041c-4.16,0-7.87-0.91-11.13-2.73
		c-3.261-1.819-5.801-4.35-7.62-7.59c-1.82-3.24-2.729-6.939-2.729-11.1c0-4.16,0.909-7.869,2.729-11.13
		c1.819-3.26,4.35-5.799,7.59-7.62c3.24-1.819,6.939-2.73,11.101-2.73c5.04,0,9.289,1.221,12.75,3.66
		c3.459,2.44,5.749,5.82,6.869,10.14H239.294z"/>
	<path fill="#10120D" d="M288.024,54.706h-15.721l-2.52,7.44h-10.74l15.24-42.121h11.88l15.24,42.121h-10.86L288.024,54.706z
		 M285.384,46.786l-5.22-15.42l-5.16,15.42H285.384z"/>
	<path fill="#10120D" d="M356.149,15.021v42.12h-10.26V31.881l-9.42,25.259h-8.28l-9.479-25.319v25.319h-10.261v-42.12h12.12
		l11.82,29.161l11.7-29.161H356.149z"/>
	<path fill="#10120D" d="M377.975,28.246v8.52h13.739v7.919h-13.739v9.24h15.539v8.221h-25.8V20.026h25.8v8.22H377.975z"/>
</g>
</svg>
