<?xml version="1.0" encoding="utf-8"?>
<!-- Generator: Adobe Illustrator 16.0.4, SVG Export Plug-In . SVG Version: 6.00 Build 0)  -->
<!DOCTYPE svg PUBLIC "-//W3C//DTD SVG 1.1//EN" "http://www.w3.org/Graphics/SVG/1.1/DTD/svg11.dtd">
<svg version="1.1" id="Layer_1" xmlns="http://www.w3.org/2000/svg" xmlns:xlink="http://www.w3.org/1999/xlink" x="0px" y="0px"
	 width="220.5px" height="148.32px" viewBox="0 0 220.5 148.32" enable-background="new 0 0 220.5 148.32" xml:space="preserve">
<rect x="94.5" y="105.365" fill="none" stroke="#000000" stroke-width="11" stroke-miterlimit="10" width="39" height="39"/>
<rect x="159.5" y="105.365" fill="none" stroke="#000000" stroke-width="11" stroke-miterlimit="10" width="38" height="39"/>
<rect x="129.5" y="100.365" fill="none" stroke="#000000" stroke-width="11" stroke-miterlimit="10" width="39" height="39"/>
<rect x="39.5" y="9.365" fill="none" stroke="#000000" stroke-width="11" stroke-miterlimit="10" width="38" height="39"/>
<rect x="107.5" y="9.365" fill="none" stroke="#000000" stroke-width="11" stroke-miterlimit="10" width="39" height="39"/>
<rect x="178.5" y="9.365" fill="none" stroke="#000000" stroke-width="11" stroke-miterlimit="10" width="37" height="39"/>
<rect x="17.5" y="105.365" fill="none" stroke="#000000" stroke-width="11" stroke-miterlimit="10" width="42" height="39"/>
<rect x="5.5" y="4.365" fill="none" stroke="#000000" stroke-width="11" stroke-miterlimit="10" width="38" height="38"/>
<rect x="69.5" y="4.365" fill="none" stroke="#000000" stroke-width="11" stroke-miterlimit="10" width="39" height="38"/>
<rect x="142.5" y="4.365" fill="none" stroke="#000000" stroke-width="11" stroke-miterlimit="10" width="39" height="38"/>
<rect x="77.5" y="48.365" fill="none" stroke="#000000" stroke-width="11" stroke-miterlimit="10" width="53" height="53"/>
<rect x="58.5" y="100.365" fill="none" stroke="#000000" stroke-width="11" stroke-miterlimit="10" width="38" height="39"/>
<rect x="95" y="105.865" fill="#EDB46C" width="39" height="38"/>
<rect x="160" y="105.865" fill="#EDB46C" width="38" height="38"/>
<rect x="129" y="99.865" fill="#FF6100" width="40" height="39"/>
<rect x="40" y="8.865" fill="#EDB46C" width="38" height="39"/>
<rect x="108" y="8.865" fill="#EDB46C" width="39" height="39"/>
<rect x="178" y="8.865" fill="#EDB46C" width="38" height="39"/>
<rect x="18" y="105.865" fill="#EDB46C" width="42" height="38"/>
<rect x="6" y="3.865" fill="#FF6100" width="38" height="39"/>
<rect x="70" y="3.865" fill="#FF6100" width="39" height="39"/>
<rect x="143" y="3.865" fill="#FF6100" width="39" height="39"/>
<rect x="78" y="47.865" fill="#FF6100" width="53" height="54"/>
<rect x="59" y="99.865" fill="#FF6100" width="38" height="39"/>
<path d="M128.796,141.3h-7.769l-12.992-19.67v19.67h-7.77v-31.892h7.77l12.992,19.763v-19.763h7.769V141.3z"/>
<path d="M144.823,135.329c-1.848-0.756-3.324-1.876-4.429-3.361c-1.106-1.483-1.689-3.27-1.749-5.359h8.269
	c0.121,1.18,0.529,2.081,1.226,2.702c0.696,0.622,1.605,0.933,2.726,0.933c1.15,0,2.059-0.267,2.725-0.797
	c0.666-0.528,1-1.263,1-2.202c0-0.787-0.265-1.438-0.794-1.955c-0.53-0.513-1.182-0.938-1.953-1.271
	c-0.773-0.333-1.872-0.712-3.294-1.136c-2.06-0.636-3.741-1.273-5.042-1.909c-1.302-0.636-2.424-1.572-3.362-2.815
	c-0.938-1.241-1.408-2.862-1.408-4.861c0-2.967,1.076-5.292,3.226-6.975c2.15-1.68,4.953-2.521,8.404-2.521
	c3.514,0,6.345,0.842,8.496,2.521c2.15,1.683,3.3,4.021,3.452,7.02h-8.405c-0.061-1.03-0.439-1.84-1.135-2.431
	c-0.697-0.59-1.59-0.885-2.681-0.885c-0.939,0-1.696,0.249-2.271,0.749c-0.576,0.5-0.862,1.22-0.862,2.157
	c0,1.03,0.484,1.834,1.453,2.409c0.969,0.574,2.484,1.195,4.543,1.862c2.059,0.696,3.732,1.363,5.02,1.998
	c1.287,0.637,2.4,1.561,3.34,2.771c0.938,1.212,1.407,2.771,1.407,4.68c0,1.816-0.461,3.467-1.385,4.951s-2.264,2.666-4.021,3.545
	c-1.757,0.878-3.832,1.316-6.224,1.316C148.76,136.466,146.671,136.088,144.823,135.329z"/>
<path d="M177.13,140.46c-0.864-0.803-1.296-1.794-1.296-2.976c0-1.211,0.432-2.227,1.296-3.044c0.862-0.818,1.975-1.228,3.338-1.228
	c1.333,0,2.431,0.409,3.293,1.228c0.863,0.817,1.295,1.833,1.295,3.044c0,1.182-0.432,2.173-1.295,2.976
	c-0.863,0.803-1.96,1.204-3.293,1.204C179.104,141.664,177.992,141.263,177.13,140.46z M184.557,108.273l-0.909,21.762h-6.586
	l-0.909-21.762H184.557z"/>
<path d="M38.098,23.145c-0.848,1.53-2.15,2.764-3.906,3.703c-1.757,0.939-3.938,1.408-6.542,1.408h-4.815v11.448h-7.769V7.812
	h12.583c2.544,0,4.694,0.439,6.452,1.318c1.756,0.879,3.073,2.089,3.952,3.634c0.878,1.544,1.317,3.315,1.317,5.315
	C39.37,19.927,38.945,21.616,38.098,23.145z M30.375,21.032c0.727-0.696,1.09-1.681,1.09-2.953s-0.364-2.256-1.09-2.953
	c-0.727-0.697-1.833-1.045-3.316-1.045h-4.225v7.996h4.225C28.542,22.077,29.648,21.729,30.375,21.032z"/>
<path d="M58.024,38.859H68.2v5.997H50.255V12.965h7.769V38.859z"/>
<path d="M96.902,34.071H85l-1.908,5.632h-8.133L86.5,7.812h8.994l11.54,31.891h-8.223L96.902,34.071z M94.904,28.074l-3.952-11.675
	l-3.907,11.675H94.904z"/>
<path d="M143.004,12.965l-11.038,21.353v10.538h-7.77V34.317l-11.038-21.353h8.812l6.179,13.356l6.132-13.356H143.004z"/>
<path d="M160.75,14.036v6.451h10.403v5.997H160.75v6.997h11.766v6.223H152.98V7.812h19.535v6.224H160.75z"/>
<path d="M200.664,44.855l-6.632-12.038h-1.863v12.038H184.4V12.965h13.038c2.514,0,4.656,0.439,6.429,1.317
	c1.772,0.879,3.096,2.083,3.975,3.612c0.878,1.529,1.317,3.233,1.317,5.11c0,2.121-0.599,4.013-1.795,5.679
	c-1.197,1.666-2.96,2.847-5.292,3.543l7.358,12.628H200.664z M192.169,27.32h4.815c1.424,0,2.492-0.347,3.204-1.045
	c0.711-0.696,1.066-1.681,1.066-2.953c0-1.211-0.355-2.165-1.066-2.863c-0.712-0.695-1.78-1.044-3.204-1.044h-4.815V27.32z"/>
<path d="M80.92,104.256v31.892h-7.769v-31.892H80.92z"/>
<path d="M58.97,109.408L52.067,141.3h-7.808l-4.226-20.988L35.657,141.3h-7.809l-6.714-31.892h6.904l3.81,23.215l4.715-23.215h7.092
	l4.526,23.215l3.849-23.215H58.97z"/>
<path d="M93.845,61.081v-9.966h17.36v45.75h-11.157V61.081H93.845z"/>
</svg>
