<?xml version="1.0" encoding="utf-8"?>
<!-- Generator: Adobe Illustrator 16.0.4, SVG Export Plug-In . SVG Version: 6.00 Build 0)  -->
<!DOCTYPE svg PUBLIC "-//W3C//DTD SVG 1.1//EN" "http://www.w3.org/Graphics/SVG/1.1/DTD/svg11.dtd">
<svg version="1.1" id="Layer_1" xmlns="http://www.w3.org/2000/svg" xmlns:xlink="http://www.w3.org/1999/xlink" x="0px" y="0px"
	 width="541px" height="76.32px" viewBox="0 -7.16 541 76.32" enable-background="new 0 -7.16 541 76.32" xml:space="preserve">
<g>
	<rect x="415.5" y="11.5" fill="none" stroke="#000000" stroke-width="11" stroke-miterlimit="10" width="45" height="45"/>
	<rect x="490.5" y="11.5" fill="none" stroke="#000000" stroke-width="11" stroke-miterlimit="10" width="45" height="45"/>
	<rect x="455.5" y="5.5" fill="none" stroke="#000000" stroke-width="11" stroke-miterlimit="10" width="45" height="45"/>
	<rect x="44.5" y="11.5" fill="none" stroke="#000000" stroke-width="11" stroke-miterlimit="10" width="45" height="45"/>
	<rect x="124.5" y="11.5" fill="none" stroke="#000000" stroke-width="11" stroke-miterlimit="10" width="45" height="45"/>
	<rect x="205.5" y="11.5" fill="none" stroke="#000000" stroke-width="11" stroke-miterlimit="10" width="45" height="45"/>
	<rect x="325.5" y="11.5" fill="none" stroke="#000000" stroke-width="11" stroke-miterlimit="10" width="49" height="45"/>
	<rect x="5.5" y="5.5" fill="none" stroke="#000000" stroke-width="11" stroke-miterlimit="10" width="45" height="45"/>
	<rect x="80.5" y="5.5" fill="none" stroke="#000000" stroke-width="11" stroke-miterlimit="10" width="45" height="45"/>
	<rect x="165.5" y="5.5" fill="none" stroke="#000000" stroke-width="11" stroke-miterlimit="10" width="45" height="45"/>
	<rect x="265.5" y="5.5" fill="none" stroke="#000000" stroke-width="11" stroke-miterlimit="10" width="45" height="45"/>
	<rect x="372.5" y="5.5" fill="none" stroke="#000000" stroke-width="11" stroke-miterlimit="10" width="45" height="45"/>
	<rect x="416" y="11" fill="#EDB46C" width="45" height="45"/>
	<rect x="491" y="11" fill="#EDB46C" width="45" height="45"/>
	<rect x="456" y="5" fill="#FF6100" width="45" height="45"/>
	<rect x="45" y="11" fill="#EDB46C" width="45" height="45"/>
	<rect x="125" y="11" fill="#EDB46C" width="45" height="45"/>
	<rect x="206" y="11" fill="#EDB46C" width="45" height="45"/>
	<rect x="326" y="11" fill="#EDB46C" width="49" height="45"/>
	<rect x="6" y="5" fill="#FF6100" width="45" height="45"/>
	<rect x="81" y="5" fill="#FF6100" width="45" height="45"/>
	<rect x="166" y="5" fill="#FF6100" width="45" height="45"/>
	<rect x="266" y="5" fill="#FF6100" width="45" height="45"/>
	<rect x="373" y="5" fill="#FF6100" width="45" height="45"/>
	<path d="M454.905,52.437h-9.047L430.73,29.531v22.905h-9.048V15.301h9.048l15.128,23.011V15.301h9.047V52.437z"/>
	<path d="M473.567,45.484c-2.151-0.881-3.87-2.187-5.157-3.914c-1.288-1.729-1.967-3.81-2.037-6.241h9.629
		c0.141,1.375,0.616,2.424,1.428,3.146c0.812,0.725,1.869,1.085,3.174,1.085c1.341,0,2.398-0.31,3.175-0.927
		c0.774-0.616,1.164-1.473,1.164-2.565c0-0.916-0.31-1.674-0.927-2.274c-0.616-0.599-1.376-1.092-2.273-1.48
		c-0.899-0.387-2.179-0.828-3.836-1.322c-2.398-0.741-4.355-1.481-5.871-2.222c-1.518-0.74-2.822-1.833-3.915-3.279
		c-1.094-1.446-1.64-3.333-1.64-5.661c0-3.456,1.252-6.163,3.756-8.12c2.503-1.957,5.767-2.936,9.786-2.936
		c4.091,0,7.388,0.979,9.893,2.936c2.504,1.958,3.843,4.682,4.021,8.173h-9.786c-0.07-1.198-0.513-2.142-1.322-2.83
		c-0.812-0.688-1.853-1.031-3.121-1.031c-1.094,0-1.976,0.291-2.646,0.873c-0.671,0.582-1.005,1.42-1.005,2.512
		c0,1.2,0.563,2.135,1.692,2.804c1.128,0.67,2.892,1.394,5.29,2.168c2.397,0.812,4.346,1.587,5.845,2.328s2.795,1.817,3.89,3.227
		c1.093,1.411,1.64,3.226,1.64,5.448c0,2.115-0.537,4.039-1.613,5.767c-1.076,1.729-2.637,3.104-4.682,4.127
		c-2.046,1.022-4.462,1.533-7.247,1.533C478.151,46.807,475.719,46.368,473.567,45.484z"/>
	<path d="M511.186,51.458c-1.006-0.935-1.508-2.088-1.508-3.465c0-1.41,0.502-2.593,1.508-3.543c1.005-0.953,2.301-1.43,3.889-1.43
		c1.552,0,2.83,0.477,3.835,1.43c1.005,0.95,1.508,2.133,1.508,3.543c0,1.377-0.503,2.53-1.508,3.465
		c-1.005,0.936-2.283,1.401-3.835,1.401C513.485,52.859,512.189,52.393,511.186,51.458z M519.834,13.979l-1.059,25.34h-7.67
		l-1.059-25.34H519.834z"/>
	<path d="M43.458,27.155c-0.988,1.781-2.504,3.219-4.549,4.312c-2.045,1.093-4.584,1.639-7.618,1.639h-5.607v13.331h-9.046V9.301
		h14.653c2.963,0,5.466,0.512,7.512,1.534c2.045,1.023,3.579,2.433,4.603,4.232c1.022,1.798,1.534,3.861,1.534,6.189
		C44.939,23.408,44.445,25.375,43.458,27.155z M34.465,24.695c0.846-0.811,1.27-1.957,1.27-3.438s-0.423-2.626-1.27-3.438
		c-0.847-0.811-2.134-1.217-3.862-1.217h-4.919v9.311h4.919C32.331,25.912,33.619,25.507,34.465,24.695z"/>
	<path d="M66.66,45.454h11.849v6.982H57.614V15.301h9.046V45.454z"/>
	<path d="M111.932,39.877h-13.86l-2.222,6.56h-9.469L99.818,9.301h10.474l13.437,37.135h-9.575L111.932,39.877z M109.604,32.895
		L105.002,19.3l-4.55,13.595H109.604z"/>
	<path d="M165.614,15.301L152.76,40.165v12.271h-9.046V40.165L130.86,15.301h10.263l7.194,15.552l7.141-15.552H165.614z"/>
	<path d="M186.276,16.549v7.512h12.114v6.982h-12.114v8.146h13.701v7.247H177.23V9.301h22.747v7.248H186.276z"/>
	<path d="M232.754,52.437l-7.724-14.019h-2.168v14.019h-9.046V15.301h15.182c2.927,0,5.422,0.512,7.485,1.534
		c2.063,1.023,3.605,2.425,4.629,4.206c1.022,1.781,1.534,3.765,1.534,5.951c0,2.469-0.697,4.672-2.09,6.612
		c-1.394,1.939-3.447,3.314-6.163,4.126l8.57,14.706L232.754,52.437L232.754,52.437z M222.862,32.018h5.607
		c1.658,0,2.901-0.405,3.729-1.217c0.828-0.811,1.243-1.957,1.243-3.438c0-1.41-0.415-2.521-1.243-3.333
		c-0.829-0.812-2.072-1.216-3.729-1.216h-5.607V32.018z"/>
	<path d="M281.604,17.232V8.821h14.653v38.616h-9.417V17.232H281.604z"/>
	<path d="M399.157,9.301v37.135h-9.047V9.301H399.157z"/>
	<path d="M373.598,15.301l-8.038,37.135h-9.093l-4.92-24.439l-5.096,24.439h-9.093l-7.818-37.135h8.039l4.436,27.032l5.491-27.032
		h8.258l5.271,27.032l4.48-27.032H373.598z"/>
</g>
</svg>
