<?xml version="1.0" encoding="utf-8"?>
<!-- Generator: Adobe Illustrator 16.0.4, SVG Export Plug-In . SVG Version: 6.00 Build 0)  -->
<!DOCTYPE svg PUBLIC "-//W3C//DTD SVG 1.1//EN" "http://www.w3.org/Graphics/SVG/1.1/DTD/svg11.dtd">
<svg version="1.1" id="Layer_1" xmlns="http://www.w3.org/2000/svg" xmlns:xlink="http://www.w3.org/1999/xlink" x="0px" y="0px"
	 width="541px" height="76.32px" viewBox="0 0 541 76.32" enable-background="new 0 0 541 76.32" xml:space="preserve">
<rect x="415.5" y="18.66" fill="none" stroke="#000000" stroke-width="11" stroke-miterlimit="10" width="45" height="45"/>
<rect x="490.5" y="18.66" fill="none" stroke="#000000" stroke-width="11" stroke-miterlimit="10" width="45" height="45"/>
<rect x="455.5" y="12.66" fill="none" stroke="#000000" stroke-width="11" stroke-miterlimit="10" width="45" height="45"/>
<rect x="44.5" y="18.66" fill="none" stroke="#000000" stroke-width="11" stroke-miterlimit="10" width="45" height="45"/>
<rect x="124.5" y="18.66" fill="none" stroke="#000000" stroke-width="11" stroke-miterlimit="10" width="45" height="45"/>
<rect x="205.5" y="18.66" fill="none" stroke="#000000" stroke-width="11" stroke-miterlimit="10" width="45" height="45"/>
<rect x="325.5" y="18.66" fill="none" stroke="#000000" stroke-width="11" stroke-miterlimit="10" width="49" height="45"/>
<rect x="5.5" y="12.66" fill="none" stroke="#000000" stroke-width="11" stroke-miterlimit="10" width="45" height="45"/>
<rect x="80.5" y="12.66" fill="none" stroke="#000000" stroke-width="11" stroke-miterlimit="10" width="45" height="45"/>
<rect x="165.5" y="12.66" fill="none" stroke="#000000" stroke-width="11" stroke-miterlimit="10" width="45" height="45"/>
<rect x="265.5" y="12.66" fill="none" stroke="#000000" stroke-width="11" stroke-miterlimit="10" width="45" height="45"/>
<rect x="372.5" y="12.66" fill="none" stroke="#000000" stroke-width="11" stroke-miterlimit="10" width="45" height="45"/>
<rect x="416" y="18.16" fill="#EDB46C" width="45" height="45"/>
<rect x="491" y="18.16" fill="#EDB46C" width="45" height="45"/>
<rect x="456" y="12.16" fill="#FF6100" width="45" height="45"/>
<rect x="45" y="18.16" fill="#EDB46C" width="45" height="45"/>
<rect x="125" y="18.16" fill="#EDB46C" width="45" height="45"/>
<rect x="206" y="18.16" fill="#EDB46C" width="45" height="45"/>
<rect x="326" y="18.16" fill="#EDB46C" width="49" height="45"/>
<rect x="6" y="12.16" fill="#FF6100" width="45" height="45"/>
<rect x="81" y="12.16" fill="#FF6100" width="45" height="45"/>
<rect x="166" y="12.16" fill="#FF6100" width="45" height="45"/>
<rect x="266" y="12.16" fill="#FF6100" width="45" height="45"/>
<rect x="373" y="12.16" fill="#FF6100" width="45" height="45"/>
<path d="M454.905,59.596h-9.047L430.73,36.691v22.905h-9.047V22.461h9.047l15.128,23.011V22.461h9.047V59.596z"/>
<path d="M473.567,52.644c-2.151-0.881-3.87-2.186-5.157-3.914c-1.288-1.729-1.967-3.809-2.037-6.242h9.629
	c0.141,1.375,0.616,2.425,1.428,3.147c0.811,0.724,1.869,1.085,3.174,1.085c1.34,0,2.398-0.309,3.174-0.927
	c0.775-0.616,1.164-1.472,1.164-2.565c0-0.916-0.309-1.674-0.926-2.274c-0.617-0.599-1.376-1.093-2.274-1.481
	c-0.899-0.387-2.179-0.828-3.836-1.322c-2.398-0.741-4.355-1.481-5.871-2.222c-1.517-0.74-2.822-1.833-3.915-3.279
	c-1.094-1.446-1.64-3.333-1.64-5.661c0-3.456,1.252-6.163,3.756-8.12c2.503-1.957,5.767-2.936,9.786-2.936
	c4.091,0,7.388,0.979,9.893,2.936c2.504,1.958,3.843,4.682,4.021,8.173h-9.787c-0.07-1.198-0.512-2.142-1.322-2.83
	c-0.812-0.688-1.852-1.031-3.121-1.031c-1.094,0-1.976,0.291-2.646,0.873c-0.67,0.582-1.004,1.42-1.004,2.512
	c0,1.2,0.563,2.135,1.692,2.804c1.128,0.67,2.892,1.394,5.29,2.168c2.397,0.812,4.346,1.587,5.845,2.328s2.795,1.817,3.889,3.227
	c1.093,1.411,1.64,3.226,1.64,5.449c0,2.115-0.537,4.038-1.613,5.766c-1.076,1.729-2.637,3.104-4.682,4.127
	c-2.046,1.023-4.462,1.533-7.247,1.533C478.151,53.966,475.719,53.527,473.567,52.644z"/>
<path d="M511.186,58.618c-1.006-0.935-1.508-2.089-1.508-3.465c0-1.41,0.502-2.593,1.508-3.544c1.004-0.953,2.3-1.429,3.888-1.429
	c1.552,0,2.83,0.476,3.835,1.429c1.005,0.951,1.508,2.134,1.508,3.544c0,1.376-0.503,2.53-1.508,3.465s-2.283,1.401-3.835,1.401
	C513.485,60.019,512.189,59.552,511.186,58.618z M519.834,21.138l-1.059,25.34h-7.67l-1.058-25.34H519.834z"/>
<path d="M43.458,34.314c-0.988,1.781-2.504,3.219-4.549,4.312c-2.045,1.093-4.584,1.639-7.618,1.639h-5.607v13.331h-9.046V16.461
	h14.653c2.963,0,5.466,0.512,7.512,1.534c2.045,1.023,3.579,2.433,4.603,4.232c1.022,1.798,1.534,3.861,1.534,6.189
	C44.939,30.568,44.445,32.534,43.458,34.314z M34.465,31.854c0.846-0.811,1.27-1.957,1.27-3.438c0-1.481-0.423-2.626-1.27-3.438
	c-0.847-0.811-2.134-1.217-3.862-1.217h-4.919v9.311h4.919C32.331,33.072,33.619,32.667,34.465,31.854z"/>
<path d="M66.66,52.614h11.849v6.982H57.614V22.461h9.046V52.614z"/>
<path d="M111.932,47.037H98.072l-2.222,6.56h-9.469l13.437-37.135h10.474l13.437,37.135h-9.575L111.932,47.037z M109.604,40.054
	l-4.602-13.595l-4.55,13.595H109.604z"/>
<path d="M165.614,22.461l-12.854,24.863v12.272h-9.046V47.324l-12.854-24.863h10.263l7.194,15.552l7.141-15.552H165.614z"/>
<path d="M186.276,23.708v7.512h12.114v6.982h-12.114v8.146h13.701v7.247h-22.747V16.461h22.747v7.248H186.276z"/>
<path d="M232.754,59.596l-7.724-14.019h-2.168v14.019h-9.046V22.461h15.182c2.927,0,5.422,0.512,7.485,1.534
	c2.063,1.023,3.605,2.425,4.629,4.206c1.022,1.781,1.534,3.765,1.534,5.951c0,2.469-0.697,4.673-2.09,6.612
	c-1.394,1.94-3.447,3.315-6.163,4.126l8.57,14.706H232.754z M222.862,39.177h5.607c1.658,0,2.901-0.405,3.729-1.217
	c0.828-0.811,1.243-1.957,1.243-3.438c0-1.41-0.415-2.521-1.243-3.333c-0.829-0.811-2.072-1.216-3.729-1.216h-5.607V39.177z"/>
<path d="M399.157,16.461v37.135h-9.047V16.461H399.157z"/>
<path d="M373.598,22.461l-8.038,37.135h-9.093l-4.92-24.439l-5.096,24.439h-9.093l-7.818-37.135h8.039l4.436,27.032l5.491-27.032
	h8.258l5.271,27.032l4.481-27.032H373.598z"/>
<g>
	<path d="M277.337,45.402c3.439-2.843,6.151-5.178,8.136-7.004c1.982-1.825,3.66-3.739,5.029-5.74
		c1.368-2.001,2.054-3.95,2.054-5.845c0-1.439-0.334-2.562-1.001-3.371c-0.667-0.807-1.668-1.211-3.002-1.211
		s-2.379,0.501-3.133,1.501c-0.756,1-1.133,2.415-1.133,4.239h-8.688c0.07-2.983,0.71-5.477,1.922-7.478
		c1.21-2,2.809-3.476,4.792-4.423c1.983-0.948,4.188-1.422,6.609-1.422c4.177,0,7.328,1.071,9.453,3.212
		c2.123,2.142,3.187,4.933,3.187,8.373c0,3.757-1.282,7.242-3.845,10.454c-2.563,3.212-5.828,6.346-9.795,9.401h14.219v7.32h-26.438
		v-6.689C276.896,45.771,277.441,45.333,277.337,45.402z"/>
</g>
</svg>
